# xmcd CD database file
#
# Track frame offsets:
#	150
#	6634
#	34291
#	64834
#	93217
#	117898
#	132187
#	153874
#	183481
#	218954
#
# Disc length: 3330 seconds
#
# Revision: 0
# Processed by: cddbd v1.5.1PL2 Copyright (c) Steve Scherf et al.
# Submitted via: CDex 1.51
#
DISCID=880d000a
DTITLE=Johan Berke - Upstairs Five
DYEAR=2004
DGENRE=Jazz
TTITLE0=Short, but sweet  no 2
TTITLE1=One for A.G.
TTITLE2=Short, but sweet  no 1
TTITLE3=Old song  no 4
TTITLE4=Orangos Tangos  no 4
TTITLE5=Orangos Tangos  no 5
TTITLE6=Meanwhile upstairs
TTITLE7=What's next?
TTITLE8=Waltz for G.H.
TTITLE9=Any other ideas?
EXTD=YEAR: 2004
EXTT0=
EXTT1=
EXTT2=
EXTT3=
EXTT4=
EXTT5=
EXTT6=
EXTT7=
EXTT8=
EXTT9=
PLAYORDER=
